<?xml version="1.0" encoding="utf-8"?>
<!-- Generator: Adobe Illustrator 27.5.0, SVG Export Plug-In . SVG Version: 6.00 Build 0)  -->
<svg version="1.1" id="Layer_1" xmlns="http://www.w3.org/2000/svg" xmlns:xlink="http://www.w3.org/1999/xlink" x="0px" y="0px"
	 viewBox="0 0 7577.5 1073.5" style="enable-background:new 0 0 7577.5 1073.5;" xml:space="preserve">
<g id="Layer_1_00000009583709872410953800000015329936404228197803_">
	<g>
		<g>
			<g>
				<path d="M437.8,479.8c-132.7-29.7-259.3-50.4-259.3-182.1c1.4-83,67.1-149.6,149.1-158.5c113.4-10.4,174.4,35.5,204.3,91.9
					c8.9,16.2,26.8,25.1,44.6,20.5l70.2-16.2c23.9-6,37.4-32.6,26.8-54.8C621.3,65.1,508,0,373.8,0C179.9,0,29.1,123,29.1,297.7
					c0,134.6,47.8,244.1,258.1,294.5c165.5,40,292.4,45.8,292.4,186.5c0,106.6-100.1,155.6-213.2,155.6
					c-118,0-191.1-51.9-219.3-109.5c-8.9-17.8-29.9-25.3-47.8-19.3l-70.2,22.2C5.2,835.1-6.6,860.2,3.8,881
					c64.2,134.6,214.9,192.5,359.4,192.5c268.5,0,368.4-161.4,368.4-306.6C731.6,599.7,640.6,527.1,437.8,479.8z"/>
				<path d="M3498.5,921h-389.4V59.3c0-22.2-17.9-40-40.3-40h-68.5c-22.4,0-40.3,17.9-40.3,40v956.2c0,22.2,17.9,40,40.3,40h498.1
					c22.2,0,40.3-17.8,40.3-40v-56.2C3538.8,938.6,3520.7,921,3498.5,921z"/>
				<path d="M4955.5,19.3h-86.4c-22.4,0-41.7,13.3-49.2,35.5l-299.9,842.4L4220.2,54.8c-7.5-22.2-26.8-35.5-50.7-35.5h-84.9
					c-17.9,0-31.4,17.9-25.3,35.5l363.8,966.8c7.5,20.8,26.8,34,49.2,34h95.5c22.4,0,41.7-13.3,49.2-34l362.3-966.8
					C4986.9,37.2,4973.6,19.3,4955.5,19.3z"/>
				<path d="M5774.5,19.3h-70.2c-22.2,0-40.3,17.9-40.3,40v956.2c0,22.2,18.1,40,40.3,40h70.2c22.4,0,40.3-17.8,40.3-40V59.3
					C5814.8,37.2,5796.9,19.3,5774.5,19.3z"/>
			</g>
			<path d="M2345.4,1020.2L1926.1,53.3c-8.6-20.8-30.8-34-56.7-34h-110c-25.6,0-48.1,13.3-56.7,34l-417.4,966.8
				c-8.6,17.6,6.9,35.5,27.5,35.5h99.5c25.8,0,48.3-14.7,56.7-35.5l20.9-51c97.4-92.1,286-223.1,562.7-211.3l18.1,44l1.7,3.6
				l1.1,2.7l86.4,212c8.6,20.8,30.9,35.5,58.4,35.5h98.1C2336.8,1055.6,2352.1,1037.8,2345.4,1020.2z M1593.4,716.2l221-538.4
				l180.2,438.8C1898.2,625.3,1748.6,649.6,1593.4,716.2z"/>
			<path d="M7473.4,1020.2L7054.1,53.3c-8.6-20.8-30.8-34-56.7-34h-110c-25.6,0-48.1,13.3-56.7,34l-417.4,966.8
				c-8.6,17.6,7,35.5,27.5,35.5h99.5c25.8,0,48.4-14.7,56.7-35.5l20.9-51c97.4-92.1,286-223.1,562.7-211.3l18.1,44l1.7,3.6l1.1,2.7
				l86.4,212c8.6,20.8,30.9,35.5,58.4,35.5h98.1C7464.8,1055.6,7480.1,1037.8,7473.4,1020.2z M6721.4,716.2l221-538.4l180.2,438.8
				C7026.2,625.3,6876.6,649.6,6721.4,716.2z"/>
		</g>
	</g>
</g>
</svg>
